<?xml version="1.0" encoding="UTF-8" standalone="no"?>
<!-- Downloaded from The Noun Project (https://thenounproject.com/) -->
<!-- Attribution text: Hands created by chiccabubble from the Noun Project -->

				<svg xmlns="http://www.w3.org/2000/svg" 
					xmlns:xlink="http://www.w3.org/1999/xlink" 
					version="1.1" 
					x="0px" 
					y="0px" 
					viewBox="0 0 100 125" 
					preserveAspectRatio="xMidYMid meet"
					width="70"
					height="auto"
					enable-background="new 0 0 100 100" 
					xml:space="preserve">

					<title>hands</title>
					
					<!-- hands -->
					<path fill="#c9c7b8" d="M47.7,39.9c0.2,0.8-1.7,3.2-2.2,4.4c-0.5,1.3-0.6,3.9-1.9,5.2c-0.7,0.8-2.8,1.9-2.9,2.7c-0.7,12.1,0.1,42.3,0.1,42.3H30.2  c0,0,2.2-31.2,2.5-43.1c0-1.1-1.5-1-2.3-4.5c-0.3-1,0-3.3-0.2-4.4c-0.3-1.3-1.5-3.6-1.9-4.9c-0.2-0.7-0.8-2.6-0.2-3  c0.5-0.3,1-0.1,1.3,0.4c0.5,0.7,1.3,2.7,1.7,3.9c0.2,0.5,1.5,2.1,1.5,1.6c0.2-2.5-1-6.6-1.1-8.9c0-0.5,0-1.4,0.8-1.7  c0.5-0.2,1.1,0.1,1.2,0.6c0.5,2.1,1.1,6.1,1.6,8.7c0,0.1,0.5,0.1,0.5-0.1c0.3-1.7-0.2-7.7,0-9.6c0-0.4,0.4-1.1,1.3-1.1  c0.5,0,1,0.6,1.2,1.6c0.3,2.2,0.2,6.6,0.3,8.9c0,0.1,0.4,0.2,0.5,0.1c0.6-2,0.8-5.8,1-7.8c0.1-0.6,0.7-1.1,1.1-1  c0.4,0,1.2,0.2,1.3,1.2c0.4,2.9-0.7,8.3-0.7,11c0,0.5,0.2,1.7,0.7,1.7c0.5,0,1.1-2.5,1.7-3.5c0.4-0.7,1.5-1.4,2.4-1.4  C46.8,39,47.5,39.1,47.7,39.9z"/>
					<path fill="#c9c7b8" d="M8.5,56.2c-0.3,0.7,1,3.1,1.3,4.2c0.3,1.2,0,3.5,0.9,4.8c0.5,0.8,2.2,2.1,2.1,2.8c-1,10.8-4.7,26.5-4.7,26.5h9.1  c0,0,1.3-15.6,2.7-26.1c0.1-1,1.4-0.7,2.6-3.6c0.4-0.9,0.4-3,0.8-3.8c0.4-1.1,1.8-3,2.3-4.1c0.3-0.6,1-2.2,0.6-2.6  c-0.4-0.3-0.9-0.2-1.2,0.1c-0.5,0.5-1.4,2.2-2,3.2c-0.2,0.4-1.5,1.6-1.5,1.2c0.2-2.2,1.8-5.7,2.2-7.7c0.1-0.4,0.2-1.3-0.5-1.6  c-0.4-0.2-1,0-1.2,0.4c-0.7,1.8-1.8,5.3-2.5,7.5c0,0.1-0.4,0-0.4-0.1c0-1.6,1.3-6.8,1.3-8.5c0-0.4-0.2-1.1-0.9-1.2  c-0.4-0.1-1,0.4-1.2,1.3c-0.6,1.9-1.1,5.8-1.5,7.8c0,0.1-0.4,0.1-0.4,0c-0.2-1.9,0.1-5.3,0.2-7.1c0-0.6-0.5-1-0.8-1.1  c-0.4,0-1.1,0.1-1.3,0.9c-0.7,2.5-0.5,7.4-1,9.8c-0.1,0.4-0.4,1.5-0.8,1.4c-0.5-0.1-0.6-2.4-1-3.3c-0.2-0.6-1.1-1.4-1.8-1.6  C9.5,55.5,8.8,55.5,8.5,56.2z"/>
					<path fill="#c9c7b8" d="M73,30.9c0.3,0.9-2.1,4.1-2.7,5.4c-0.6,1.5-1.2,4.8-2.6,6.5c-1.2,1.4-2.8,1.7-2.9,2.5c-0.8,14,0.2,49.2,0.2,49.2H52.3  c0,0,2.7-36.3,3-50.1c0-1.3-1.8-1.2-2.8-5.2c-0.3-1.2,0-3.9-0.2-5.1c-0.3-1.6-1.5-4.2-2-5.7C50,27.7,49,25.8,49.8,25  c0.4-0.5,1.2-0.2,1.6,0.3c0.6,0.8,1.4,3.1,2.1,4.4c0.2,0.3,0.7,1.3,1.2,1.8c0.4,0.4,0.7,0.4,0.8,0.1c0.2-2.9-1.3-7.7-1.4-10.4  c0-0.6-0.2-1.5,0.9-1.8c0.6-0.2,1.3,0,1.5,0.7c0.6,2.5,1.3,7.1,1.9,10.1c0,0.1,0.6,0.1,0.6-0.1c0.4-2-0.1-9,0.2-11.1  c0.1-0.5,0.3-1.4,1.3-1.4c0.8,0,1.3,0.7,1.4,1.9c0.3,2.6,0.3,7.7,0.4,10.4c0,0.1,0.5,0.2,0.6,0.1c0.7-2.3,1-6.8,1.2-9.1  c0.1-0.7,0.9-1.2,1.3-1.2c0.5,0,1.4,0.3,1.6,1.4c0.4,3.4-0.9,9.6-0.8,12.8c0,0.5,0.3,2.1,0.8,2c0.4-0.1,1.2-2.9,2-4.1  c0.5-0.7,1.5-1.7,2.5-1.8C71.8,29.9,72.8,29.9,73,30.9z"/>
					<path fill="#c9c7b8" d="M68.9,49.1c-0.1,0.7,1.9,2.9,2.5,3.8c0.6,1.1,1.4,3.5,2.5,4.7c1,0.9,2.2,1,2.3,1.6c2.1,10.6,6.1,35.3,6.1,35.3h9.6  c0,0-7.2-26.5-8.9-36.9c-0.2-1,1.1-1.1,1.4-4.2c0.1-0.9-0.5-2.9-0.4-3.9c0.1-1.2,0.6-3.3,0.8-4.5c0.1-0.6,0.6-2.1,0-2.7  c-0.4-0.3-0.9-0.1-1.1,0.4c-0.4,0.6-0.6,2.5-1,3.5c-0.1,0.3-0.3,1.1-0.6,1.5c-0.2,0.3-0.5,0.4-0.5,0.2c-0.5-2.1,0.1-6-0.1-8  c0-0.4,0-1.1-0.8-1.3c-0.4-0.1-0.9,0.1-1,0.7c-0.2,1.9-0.1,5.5-0.2,7.8c0,0.1-0.4,0.1-0.4,0c-0.5-1.5-0.9-6.8-1.4-8.4  c-0.1-0.3-0.3-1-1.1-0.9c-0.5,0.1-0.8,0.7-0.8,1.6c0,2,0.7,5.8,0.9,7.9c0,0.1-0.3,0.2-0.4,0.1c-0.7-1.7-1.4-5.1-1.9-6.8  c-0.1-0.5-0.7-0.8-1.1-0.8c-0.3,0.1-1,0.4-1,1.2c0.1,2.6,1.7,7.2,2,9.6c0,0.4,0,1.6-0.3,1.6c-0.3-0.1-1.2-2.1-1.9-2.9  c-0.4-0.5-1.2-1.1-2-1.1C69.7,48.3,69,48.4,68.9,49.1z"/>
					
					<!-- hearts -->
					<path fill="#a5dcc7" d="M21.6,23.7c-0.9-1.5-2.7-2.1-4.3-1.4c-1.3,0.6-2,1.9-2,3.2c-1-0.9-2.4-1.2-3.7-0.6c-1.6,0.7-2.4,2.5-1.8,4.2  c0,0.1,0.1,0.2,0.1,0.3c1.7,3.8,7.1,3.4,9.6,5.3l0,0c0.2-3.1,4-7,2.3-10.7C21.7,23.9,21.7,23.8,21.6,23.7z"/>
					<path fill="#a5dcc7" d="M44.3,8.5c-0.6-1.7-2.3-2.7-4.1-2.3c-1.4,0.3-2.5,1.5-2.7,2.8c-0.8-1.1-2.2-1.7-3.7-1.4  c-1.8,0.4-3,2.1-2.7,3.9c0,0.1,0,0.2,0.1,0.4c0.9,4.2,6.5,5,8.6,7.5l0,0c0.9-3.1,5.6-6.3,4.6-10.5C44.4,8.8,44.4,8.6,44.3,8.5z"/>
					<path fill="#a5dcc7"  d="M92,30.9c0.3-0.7,0.1-1.4-0.6-1.8c-0.5-0.3-1.1-0.2-1.6,0.1c0.1-0.5-0.2-1.1-0.7-1.4  c-0.6-0.4-1.4-0.2-1.9,0.4c0,0-0.1,0.1-0.1,0.1c-0.9,1.5,0.6,3.3,0.5,4.6l0,0c1.1-0.7,3.3-0.3,4.2-1.8C92,31,92,31,92,30.9z"/>
					<path fill="#a5dcc7"  d="M83.3,13.9c0.7-2-0.1-4.2-2.1-5.2c-1.5-0.8-3.3-0.5-4.6,0.6c0.1-1.6-0.8-3.2-2.3-4c-1.9-0.9-4.2-0.2-5.3,1.5  c-0.1,0.1-0.1,0.2-0.2,0.4c-2.2,4.5,2.3,9.4,2.5,13.2l0,0c3.1-2.2,9.7-1.7,11.9-6.2C83.2,14.1,83.3,14,83.3,13.9z"/>

					<!-- text -->
					<!-- <text x="0" y="115" font-size="5px" font-weight="bold" font-family="'Helvetica Neue', Helvetica, Arial-Unicode, Arial, Sans-serif">Created by chiccabubble</text> -->
					<!-- <text x="0" y="120" font-size="5px" font-weight="bold" font-family="'Helvetica Neue', Helvetica, Arial-Unicode, Arial, Sans-serif">from the Noun Project</text> -->

				</svg>